<?xml version="1.0" encoding="UTF-8" standalone="no"?>
<svg
   viewBox="0 0 520 520"
   width="32"
   height="32"
   version="1.1"
   id="svg1"
   sodipodi:docname="progress-05.svg"
   inkscape:version="1.4.4 (dcaf3e7d9e, 2026-05-05)"
   xmlns:inkscape="http://www.inkscape.org/namespaces/inkscape"
   xmlns:sodipodi="http://sodipodi.sourceforge.net/DTD/sodipodi-0.dtd"
   xmlns="http://www.w3.org/2000/svg"
   xmlns:svg="http://www.w3.org/2000/svg">
  <defs
     id="defs1">
    <inkscape:path-effect
       effect="fillet_chamfer"
       id="path-effect2"
       is_visible="true"
       lpeversion="1"
       nodesatellites_param="F,1,0,1,0,0.17879204,0,1 @ F,1,0,1,0,0.11967113,0,1 @ F,1,0,1,0,0.69705031,0,1 @ F,1,0,1,0,0.23161552,0,1 @ F,1,0,1,0,0.13671232,0,1 @ F,1,0,1,0,0.19326457,0,1 @ F,1,0,1,0,0.36730884,0,1 @ F,1,0,1,0,0.48367594,0,1 @ F,1,0,1,0,0.13671232,0,1 @ F,1,0,1,0,0.19326457,0,1 @ F,1,0,1,0,0.36730884,0,1 @ F,1,0,1,0,0.33333333,0,1 @ F,1,0,1,0,0.13333333,0,1 @ F,1,0,1,0,1.8856181,0,1 @ F,1,0,1,0,0.48367594,0,1 @ F,1,0,1,0,0.13671232,0,1 @ F,1,0,1,0,0.19326457,0,1 @ F,1,0,1,0,0.17879204,0,1 @ F,1,0,1,0,0.33333333,0,1 @ F,1,0,1,0,0.15226494,0,1 @ F,1,0,1,0,0.13671232,0,1 @ F,1,0,1,0,0.23570226,0,1 @ F,1,0,1,0,0.094280904,0,1 @ F,1,0,1,0,0.086668518,0,1 @ F,1,0,1,0,0.36730884,0,1 @ F,1,0,1,0,0.19047619,0,1 @ F,1,0,1,0,0.37712362,0,1 @ F,1,0,1,0,0.019047619,0,1 @ F,1,0,1,0,0.37712362,0,1 @ F,1,0,1,0,0.1025641,0,1 @ F,1,0,1,0,0.33333333,0,1 @ F,1,0,1,0,0.36730884,0,1 @ F,1,0,1,0,0.19326457,0,1 @ F,1,0,1,0,0.13671232,0,1 @ F,1,0,1,0,0.48367594,0,1 @ F,1,0,1,0,0.36730884,0,1 @ F,1,0,1,0,0.19326457,0,1 @ F,1,0,1,0,0.13671232,0,1 @ F,1,0,1,0,0.15226494,0,1 @ F,1,0,1,0,0.13333333,0,1 @ F,1,0,1,0,0.13333333,0,1 @ F,1,0,1,0,0.33333333,0,1 @ F,1,0,1,0,0.17879204,0,1 @ F,1,0,1,0,0.19326457,0,1 @ F,1,0,1,0,0.13986014,0,1 @ F,1,0,1,0,0.34514052,0,1 @ F,1,0,1,0,1.384083,0,1 @ F,1,0,1,0,0.17879204,0,1 @ F,1,0,1,0,0.19326457,0,1 @ F,1,0,1,0,0.13671232,0,1 @ F,1,0,1,0,0.48367594,0,1 @ F,1,0,1,0,0.17879204,0,1 @ F,1,0,1,0,0.26116594,0,1 @ F,1,0,1,0,1.384083,0,1 @ F,1,0,1,0,0.17879204,0,1 @ F,1,0,1,0,0.19326457,0,1 @ F,1,0,1,0,0.13671232,0,1 @ F,1,0,1,0,0.48367594,0,1 @ F,1,0,1,0,0.17879204,0,1 @ F,1,0,1,0,0.15342701,0,1 @ F,1,0,1,0,2.6429859,0,1 @ F,1,0,1,0,0.19326457,0,1 @ F,1,0,1,0,0.22495178,0,1 @ F,1,0,1,0,0.48367594,0,1 @ F,1,0,1,0,0.17879204,0,1 @ F,1,0,1,0,0.19326457,0,1 @ F,1,0,1,0,0.13671232,0,1 @ F,1,0,1,0,0.48367594,0,1"
       radius="8"
       unit="px"
       method="auto"
       mode="F"
       chamfer_steps="1"
       flexible="true"
       use_knot_distance="true"
       apply_no_radius="true"
       apply_with_radius="true"
       only_selected="false"
       hide_knots="false" />
    <inkscape:path-effect
       effect="fillet_chamfer"
       id="path-effect1"
       is_visible="true"
       lpeversion="1"
       nodesatellites_param="F,1,0,1,0,0,0,1 @ F,1,0,1,0,0.3,0,1 @ F,1,0,1,0,0.3,0,1 @ F,1,0,1,0,0.3,0,1 @ F,1,0,1,0,0.3,0,1 @ F,1,0,1,0,0.3,0,1 @ F,1,0,1,0,0.3,0,1 @ F,1,0,1,0,0.3,0,1 @ F,1,0,1,0,0.3,0,1 @ F,1,0,1,0,0.3,0,1 @ F,1,0,1,0,0.3,0,1 @ F,1,0,1,0,0.3,0,1 @ F,1,0,1,0,0.3,0,1 @ F,1,0,1,0,0.3,0,1 @ F,1,0,1,0,30,0,1 | F,1,0,1,0,0,0,1 @ F,1,0,1,0,0.3,0,1 @ F,1,0,1,0,0.3,0,1 @ F,1,0,1,0,0.3,0,1 @ F,1,0,1,0,0.3,0,1 @ F,1,0,1,0,0.3,0,1 @ F,1,0,1,0,30,0,1 | F,1,0,1,0,0,0,1 @ F,1,0,1,0,0.3,0,1 @ F,1,0,1,0,0.3,0,1 @ F,1,0,1,0,0.3,0,1 @ F,1,0,1,0,0.3,0,1 @ F,1,0,1,0,0.3,0,1 @ F,1,0,1,0,0.3,0,1 @ F,1,0,1,0,0.3,0,1 @ F,1,0,1,0,0.3,0,1 @ F,1,0,1,0,0.3,0,1 @ F,1,0,1,0,0.3,0,1 @ F,1,0,1,0,0.3,0,1 @ F,1,0,1,0,0.3,0,1 @ F,1,0,1,0,0.3,0,1 @ F,1,0,1,0,0.3,0,1 @ F,1,0,1,0,0.3,0,1 @ F,1,0,1,0,0.3,0,1 @ F,1,0,1,0,0.3,0,1 @ F,1,0,1,0,0.3,0,1 @ F,1,0,1,0,30,0,1"
       radius="30"
       unit="px"
       method="auto"
       mode="F"
       chamfer_steps="1"
       flexible="true"
       use_knot_distance="true"
       apply_no_radius="true"
       apply_with_radius="true"
       only_selected="false"
       hide_knots="false" />
    <filter
       style="color-interpolation-filters:sRGB;"
       inkscape:label="Drop Shadow"
       id="filter2"
       x="-0.1423831"
       y="-0.12275862"
       width="1.2847663"
       height="1.2455172">
      <feFlood
         result="flood"
         in="SourceGraphic"
         flood-opacity="0.498039"
         flood-color="rgb(0,0,0)"
         id="feFlood1" />
      <feGaussianBlur
         result="blur"
         in="SourceGraphic"
         stdDeviation="6.000000"
         id="feGaussianBlur1" />
      <feOffset
         result="offset"
         in="blur"
         dx="0.000000"
         dy="0.000000"
         id="feOffset1" />
      <feComposite
         result="comp1"
         operator="in"
         in="flood"
         in2="offset"
         id="feComposite1" />
      <feComposite
         result="comp2"
         operator="over"
         in="SourceGraphic"
         in2="comp1"
         id="feComposite2" />
    </filter>
  </defs>
  <sodipodi:namedview
     id="namedview1"
     pagecolor="#ffffff"
     bordercolor="#000000"
     borderopacity="0.25"
     inkscape:showpageshadow="2"
     inkscape:pageopacity="0.0"
     inkscape:pagecheckerboard="0"
     inkscape:deskcolor="#d1d1d1"
     inkscape:zoom="4.9014208"
     inkscape:cx="20.504259"
     inkscape:cy="59.880596"
     inkscape:window-width="2557"
     inkscape:window-height="1387"
     inkscape:window-x="0"
     inkscape:window-y="0"
     inkscape:window-maximized="1"
     inkscape:current-layer="svg1" />
    <g
     id="resize"
     transform="translate(-0.7526985,-38.2600000) translate(285,480) scale(0.80772430) translate(-285,-480)">
<path
     id="canvas"
     style="fill:#ffffff;fill-opacity:1;stroke:#ffffff;stroke-width:78;stroke-dasharray:none;stroke-opacity:1;filter:url(#filter2)"
     d="m 65.304369,24.03046 -13.278737,5.49908 a 20.094359,20.094359 146.24606 0 0 -6.523461,4.359486 L 27.527829,51.870975 A 20.16009,20.16009 123.76547 0 0 23.166489,58.394367 14.440675,14.440675 96.780428 0 0 22.5,64 v 9.27 a 20.103042,20.103042 78.746556 0 0 1.531178,7.695334 l 8.137644,19.639336 a 20.133657,20.133657 56.256343 0 0 4.358639,6.52472 l 8.975078,8.98122 a 20.140784,20.140784 56.252468 0 1 4.359139,6.52452 l 1.106644,2.66974 A 20.095941,20.095941 78.742681 0 1 52.5,133 v 0.27 a 20.103042,20.103042 78.746556 0 0 1.531178,7.69533 l 8.137644,19.63934 a 20.133657,20.133657 56.256343 0 0 4.358639,6.52472 l 8.975078,8.98122 a 20.140784,20.140784 56.252468 0 1 4.359139,6.52452 l 1.106644,2.66974 A 20.095941,20.095941 78.742681 0 1 82.5,193 v 4 30 a 7.448555,7.448555 105.25512 0 1 -1.5,5.5 h -4.27 a 20.103042,20.103042 168.74656 0 0 -7.695334,1.53118 l -19.639332,8.13764 a 20.133657,20.133657 146.25634 0 0 -6.524727,4.35864 l -8.981214,8.97508 a 20.087534,20.087534 123.75766 0 0 -4.359853,6.52309 l -5.49908,13.27874 A 20.113252,20.113252 101.24788 0 0 22.5,283 v 4 26.27 a 20.103042,20.103042 78.746556 0 0 1.531178,7.69533 l 8.137644,19.63934 a 20.115677,20.115677 56.246556 0 0 4.359605,6.52376 l 6.343146,6.34314 30,30 a 52216,52216 45.004389 0 1 5.656421,5.65729 l 26.974016,26.98228 a 20.130857,20.130857 56.24707 0 1 4.35967,6.52399 l 1.10664,2.66974 A 20.095941,20.095941 78.742681 0 1 112.5,433 v 13 a 9.6568543,9.6568543 67.5 0 0 2.82843,6.82843 l 1.84314,1.84314 A 9.6568542,9.6568542 22.5 0 0 124,457.5 l 202,0 a 9.6568543,9.6568543 157.5 0 0 6.82843,-2.82843 l 1.84314,-1.84314 A 9.656854,9.656854 112.5 0 0 337.5,446 l 0,-31 v -12 a 20.095941,20.095941 101.25732 0 1 1.53168,-7.69513 l 1.10664,-2.66974 a 20.140784,20.140784 123.74753 0 1 4.35914,-6.52452 l 8.97508,-8.98122 a 20.133656,20.133656 123.74366 0 0 4.35864,-6.52472 l 8.13764,-19.63934 A 20.103042,20.103042 101.25344 0 0 367.5,343.27 V 343 a 20.095941,20.095941 101.25732 0 1 1.53168,-7.69513 l 1.10664,-2.66974 a 20.140784,20.140784 123.74753 0 1 4.35914,-6.52452 l 8.97508,-8.98122 a 20.133656,20.133656 123.74366 0 0 4.35864,-6.52472 l 8.13764,-19.63934 A 20.103042,20.103042 101.25344 0 0 397.5,283.27 V 265 235 205 193 a 20.113252,20.113252 78.752123 0 0 -1.53046,-7.69563 l -5.49908,-13.27874 a 20.087534,20.087534 56.242335 0 0 -4.35985,-6.52309 l -8.98122,-8.97508 A 9.661522,9.661522 22.490213 0 0 370.3,153.7 h -20.6 a 9.6651927,9.6651927 157.51748 0 0 -6.83015,2.8267 l -2.5397,2.5366 A 1.5322441,1.5322441 1.281264 0 1 337.5,159 l -7.02954,-16.97437 a 20.087534,20.087534 56.242335 0 0 -4.35985,-6.52309 l -8.98122,-8.97508 a 20.133656,20.133656 33.743657 0 0 -6.52472,-4.35864 l -19.63934,-8.13764 A 20.103042,20.103042 11.253444 0 0 283.27,112.5 H 283 a 20.113252,20.113252 168.75212 0 0 -7.69563,1.53046 l -13.27874,5.49908 a 20.105465,20.105465 146.25212 0 0 -6.52406,4.35889 l -5.17314,5.17314 A 1.5310963,1.5310963 1.2470939 0 1 247.5,129 l -7.02954,-16.97437 a 20.087534,20.087534 56.242335 0 0 -4.35985,-6.52309 l -8.98122,-8.975079 a 20.133656,20.133656 33.743657 0 0 -6.52472,-4.358639 L 200.96533,84.031178 A 20.103042,20.103042 11.253444 0 0 193.27,82.5 H 193 a 20.113252,20.113252 168.75212 0 0 -7.69563,1.53046 l -13.27874,5.49908 a 20.091227,20.091227 146.24435 0 0 -6.52329,4.359654 L 152.72766,106.67081 A 2.7899514,2.7899514 156.34405 0 1 148.94,108.33 L 137.12939,96.527461 a 20.076362,20.076362 56.248442 0 1 -4.35906,-6.523419 l -3.74066,-9.038084 A 20.124464,20.124464 78.758229 0 1 127.5,73.27 V 73 a 20.113252,20.113252 78.752123 0 0 -1.53046,-7.695631 l -5.49908,-13.278737 a 20.087534,20.087534 56.242335 0 0 -4.35985,-6.523093 l -8.98122,-8.975078 a 20.133656,20.133656 33.743657 0 0 -6.52472,-4.358639 L 80.965334,24.031178 A 20.103042,20.103042 11.253444 0 0 73.27,22.5 H 73 a 20.113252,20.113252 168.75212 0 0 -7.695631,1.53046 z"
     inkscape:path-effect="#path-effect2"
     inkscape:original-d="M 69,22.5 48.33,31.06 24.7,54.7 22.5,60 V 77.27 L 33.7,104.3 48.33,118.94 52.5,129 v 8.27 L 63.7,164.3 78.33,178.94 82.5,189 v 12 30 L 81,232.5 H 72.73 L 45.7,243.7 31.06,258.33 22.5,279 v 12 26.27 l 11.2,27.03 12,12 30,30 32.63,32.64 4.17,10.06 v 21 l 7.5,7.5 h 210 l 7.5,-7.5 v -39 -12 l 4.17,-10.06 14.63,-14.64 11.2,-27.03 V 339 l 4.17,-10.06 14.63,-14.64 11.2,-27.03 V 261 231 201 189 L 388.94,168.33 374.3,153.7 h -28.6 l -8.2,8.19 V 159 L 328.94,138.33 314.3,123.7 287.27,112.5 H 279 l -20.67,8.56 -10.83,10.83 V 129 L 238.94,108.33 224.3,93.7 197.27,82.5 H 189 L 168.33,91.06 149.9,109.5 148.94,108.33 134.3,93.7 127.5,77.27 V 69 L 118.94,48.33 104.3,33.7 77.27,22.5 Z"
     transform="translate(60,30)" />
  <path
     d="M 30,60 V 77.272078 A 30.727922,30.727922 67.5 0 0 39,99 l 14.636039,14.63604 A 21.727922,21.727922 67.5 0 1 60,129 v 8.27208 A 30.727922,30.727922 67.5 0 0 69,159 l 14.636039,14.63604 A 21.727922,21.727922 67.5 0 1 90,189 v 12 30 a 9,9 135 0 1 -9,9 H 72.727922 A 30.727922,30.727922 157.5 0 0 51,249 L 36.363961,263.63604 A 21.727922,21.727922 112.5 0 0 30,279 v 12 26.27208 A 30.727922,30.727922 67.5 0 0 39,339 l 12,12 30,30 32.63604,32.63604 A 21.727922,21.727922 67.5 0 1 120,429 v 21 M 30,60 53.636039,36.363961 A 21.727922,21.727922 157.5 0 1 69,30 h 8.272078 A 30.727922,30.727922 22.5 0 1 99,39 l 14.63604,14.636039 A 21.727922,21.727922 67.5 0 1 120,69 v 8.272078 A 30.727922,30.727922 67.5 0 0 129,99 l 14.63604,14.63604 A 21.727922,21.727922 67.5 0 1 150,129 v 21 m 0,-30 23.63604,-23.636039 A 21.727922,21.727922 157.5 0 1 189,90 h 8.27208 A 30.727922,30.727922 22.5 0 1 219,99 l 14.63604,14.63604 A 21.727922,21.727922 67.5 0 1 240,129 v 8.27208 A 5.2720779,5.2720779 22.5 0 0 249,141 l 14.63604,-14.63604 A 21.727922,21.727922 157.5 0 1 279,120 h 8.27208 A 30.727922,30.727922 22.5 0 1 309,129 l 14.63604,14.63604 A 21.727922,21.727922 67.5 0 1 330,159 v 8.27208 A 5.2720779,5.2720779 22.5 0 0 339,171 l 12,-12 a 12.727922,12.727922 0 0 1 18,0 l 14.63604,14.63604 A 21.727922,21.727922 67.5 0 1 390,189 v 12 30 30 26.27208 A 30.727922,30.727922 112.5 0 1 381,309 l -14.63604,14.63604 A 21.727922,21.727922 112.5 0 0 360,339 v 8.27208 A 30.727922,30.727922 112.5 0 1 351,369 l -14.63604,14.63604 A 21.727922,21.727922 112.5 0 0 330,399 v 12 39"
     fill="none"
     stroke="#000000"
     stroke-width="6"
     stroke-linecap="round"
     stroke-linejoin="round"
     id="path1"
     sodipodi:nodetypes="cccccccccccccccccccccccccccccccccccccccccc"
     style="stroke-width:15;stroke-dasharray:none"
     inkscape:path-effect="#path-effect1"
     inkscape:original-d="m 30,60 v 30 l 30,30 v 30 l 30,30 v 30 30 H 60 l -30,30 v 30 30 l 30,30 30,30 30,30 v 30 M 30,60 60,30 h 30 l 30,30 v 30 l 30,30 v 30 m 0,-30 30,-30 h 30 l 30,30 v 30 l 30,-30 h 30 l 30,30 v 30 l 30,-30 30,30 v 30 30 30 30 l -30,30 v 30 l -30,30 v 30 30"
     transform="translate(60,30)" />
  </g>
  <path
     id="hotspot"
     d="m 260.00002,260.00002 h 16.25 v 16.25 h -16.25 z"
     display="none"
     fill="#333333"
     style="stroke-width:16.2502" />
</svg>
